<svg xmlns="http://www.w3.org/2000/svg" width="805" height="600"><rect width="805" height="600" x="0" y="0" fill="#FFFFFF" id="background"/><g transform="translate(10,10)" id="viz"><g id="arcs"><path d="M425.89155740993243,550A28.812731784056723,28.812731784056723 0,0,1 483.5170209780459,550" fill="none" stroke="gray" stroke-width="6.3559322033898304" opacity="0.5"/><path d="M425.89155740993243,550A109.80404853227186,109.80404853227186 0,0,0 206.2834603453887,550" fill="none" stroke="gray" stroke-width="3.305084745762712" opacity="0.5"/><path d="M425.89155740993243,550A164.55422129503378,164.55422129503378 0,0,1 755,550" fill="none" stroke="gray" stroke-width="2.7966101694915255" opacity="0.5"/><path d="M425.89155740993243,550A89.34539043366729,89.34539043366729 0,0,1 604.582338277267,550" fill="none" stroke="gray" stroke-width="3.305084745762712" opacity="0.5"/><path d="M84.68536050091099,550A199.41583023856745,199.41583023856745 0,0,1 483.5170209780459,550" fill="none" stroke="gray" stroke-width="0.7627118644067797" opacity="0.5"/><path d="M84.68536050091099,550A335.1573197495445,335.1573197495445 0,0,1 755,550" fill="none" stroke="gray" stroke-width="2.0338983050847457" opacity="0.5"/><path d="M264.9922506201209,550A109.26238517896249,109.26238517896249 0,0,1 483.5170209780459,550" fill="none" stroke="gray" stroke-width="1.5254237288135595" opacity="0.5"/><path d="M264.9922506201209,550A23.97244068736464,23.97244068736464 0,0,1 312.9371319948502,550" fill="none" stroke="gray" stroke-width="0.7627118644067797" opacity="0.5"/><path d="M264.9922506201209,550A245.00387468993955,245.00387468993955 0,0,1 755,550" fill="none" stroke="gray" stroke-width="7.88135593220339" opacity="0.5"/><path d="M673.076137857219,550A94.77955843958657,94.77955843958657 0,0,0 483.5170209780459,550" fill="none" stroke="gray" stroke-width="7.627118644067796" opacity="0.5"/><path d="M673.076137857219,550A233.39633875591517,233.39633875591517 0,0,0 206.2834603453887,550" fill="none" stroke="gray" stroke-width="15" opacity="0.5"/><path d="M673.076137857219,550A180.06950293118442,180.06950293118442 0,0,0 312.9371319948502,550" fill="none" stroke="gray" stroke-width="0.7627118644067797" opacity="0.5"/><path d="M673.076137857219,550A40.961931071390495,40.961931071390495 0,0,1 755,550" fill="none" stroke="gray" stroke-width="17.54237288135593" opacity="0.5"/><path d="M673.076137857219,550A34.246899789976,34.246899789976 0,0,0 604.582338277267,550" fill="none" stroke="gray" stroke-width="5.338983050847458" opacity="0.5"/><path d="M365.87517089530246,550A79.79585527495688,79.79585527495688 0,0,0 206.2834603453887,550" fill="none" stroke="gray" stroke-width="8.389830508474576" opacity="0.5"/><path d="M365.87517089530246,550A194.56241455234877,194.56241455234877 0,0,1 755,550" fill="none" stroke="gray" stroke-width="10.169491525423728" opacity="0.5"/><path d="M365.87517089530246,550A119.35358369098228,119.35358369098228 0,0,1 604.582338277267,550" fill="none" stroke="gray" stroke-width="4.576271186440678" opacity="0.5"/><path d="M5.106321098861283,550A374.94683945056937,374.94683945056937 0,0,1 755,550" fill="none" stroke="gray" stroke-width="1.0169491525423728" opacity="0.5"/><path d="M542.9773531067935,550A115.02011055597168,115.02011055597168 0,0,0 312.9371319948502,550" fill="none" stroke="gray" stroke-width="1.271186440677966" opacity="0.5"/><path d="M542.9773531067935,550A106.01132344660323,106.01132344660323 0,0,1 755,550" fill="none" stroke="gray" stroke-width="11.186440677966102" opacity="0.5"/><path d="M542.9773531067935,550A30.802492585236735,30.802492585236735 0,0,1 604.582338277267,550" fill="none" stroke="gray" stroke-width="7.627118644067796" opacity="0.5"/><path d="M542.9773531067935,550A249.5519885741493,249.5519885741493 0,0,0 43.87337595849494,550" fill="none" stroke="gray" stroke-width="0.7627118644067797" opacity="0.5"/><path d="M140.1024559731484,550A307.4487720134258,307.4487720134258 0,0,1 755,550" fill="none" stroke="gray" stroke-width="30" opacity="0.5"/><path d="M140.1024559731484,550A232.23994115205932,232.23994115205932 0,0,1 604.582338277267,550" fill="none" stroke="gray" stroke-width="1.5254237288135595" opacity="0.5"/></g><g id="nodes"><g><circle cx="5.106321098861283" cy="550" r="5.106321098861283"/><text transform="translate(5.106321098861283,560.1063210988613) rotate(-90)" alignment-baseline="middle" font-family="Helvetica, Arial, sans-serif" font-size="12" text-anchor="end">Rickon Stark</text></g><g><circle cx="43.87337595849494" cy="550" r="4.690152983925463"/><text transform="translate(43.87337595849494,559.6901529839255) rotate(-90)" alignment-baseline="middle" font-family="Helvetica, Arial, sans-serif" font-size="12" text-anchor="end">Willem Lannister</text></g><g><circle cx="84.68536050091099" cy="550" r="7.151250781643679"/><text transform="translate(84.68536050091099,562.1512507816436) rotate(-90)" alignment-baseline="middle" font-family="Helvetica, Arial, sans-serif" font-size="12" text-anchor="end">Benjen Stark</text></g><g><circle cx="140.1024559731484" cy="550" r="19.295263913746844"/><text transform="translate(140.1024559731484,574.2952639137468) rotate(-90)" alignment-baseline="middle" font-family="Helvetica, Arial, sans-serif" font-size="12" text-anchor="end">Sansa Stark</text></g><g><circle cx="206.2834603453887" cy="550" r="17.915159681646543"/><text transform="translate(206.2834603453887,572.9151596816465) rotate(-90)" alignment-baseline="middle" font-family="Helvetica, Arial, sans-serif" font-size="12" text-anchor="end">Jaime Lannister</text></g><g><circle cx="264.9922506201209" cy="550" r="11.82304981623873"/><text transform="translate(264.9922506201209,566.8230498162387) rotate(-90)" alignment-baseline="middle" font-family="Helvetica, Arial, sans-serif" font-size="12" text-anchor="end">Bran Stark</text></g><g><circle cx="312.9371319948502" cy="550" r="7.151250781643679"/><text transform="translate(312.9371319948502,562.1512507816436) rotate(-90)" alignment-baseline="middle" font-family="Helvetica, Arial, sans-serif" font-size="12" text-anchor="end">Stafford Lannister</text></g><g><circle cx="365.87517089530246" cy="550" r="16.816207341961707"/><text transform="translate(365.87517089530246,571.8162073419617) rotate(-90)" alignment-baseline="middle" font-family="Helvetica, Arial, sans-serif" font-size="12" text-anchor="end">Eddard Stark</text></g><g><circle cx="425.89155740993243" cy="550" r="14.229598395821384"/><text transform="translate(425.89155740993243,569.2295983958214) rotate(-90)" alignment-baseline="middle" font-family="Helvetica, Arial, sans-serif" font-size="12" text-anchor="end">Arya Stark</text></g><g><circle cx="483.5170209780459" cy="550" r="14.425284395445132"/><text transform="translate(483.5170209780459,569.4252843954451) rotate(-90)" alignment-baseline="middle" font-family="Helvetica, Arial, sans-serif" font-size="12" text-anchor="end">Cersei Lannister</text></g><g><circle cx="542.9773531067935" cy="550" r="16.06446695645558"/><text transform="translate(542.9773531067935,571.0644669564556) rotate(-90)" alignment-baseline="middle" font-family="Helvetica, Arial, sans-serif" font-size="12" text-anchor="end">Robb Stark</text></g><g><circle cx="604.582338277267" cy="550" r="16.569937437171"/><text transform="translate(604.582338277267,571.569937437171) rotate(-90)" alignment-baseline="middle" font-family="Helvetica, Arial, sans-serif" font-size="12" text-anchor="end">Tywin Lannister</text></g><g><circle cx="673.076137857219" cy="550" r="22.95328136593407"/><text transform="translate(673.076137857219,577.9532813659341) rotate(-90)" alignment-baseline="middle" font-family="Helvetica, Arial, sans-serif" font-size="12" text-anchor="end">Catelyn Stark</text></g><g><circle cx="755" cy="550" r="30"/><text transform="translate(755,585) rotate(-90)" alignment-baseline="middle" font-family="Helvetica, Arial, sans-serif" font-size="12" text-anchor="end">Tyrion Lannister</text></g></g></g></svg>